<svg width="34" height="34" viewBox="0 0 34 34" fill="none" xmlns="http://www.w3.org/2000/svg">
<path d="M34 6.80185H24.8981C25.3843 6.08172 25.6491 5.22622 25.6491 4.32497C25.6491 3.16596 25.2161 2.07927 24.4305 1.26518C22.8027 -0.421726 20.1536 -0.421726 18.5258 1.26518L16.8384 3.01389L15.1515 1.26518C13.5236 -0.421726 10.8746 -0.421726 9.24681 1.26518C8.46123 2.07927 8.02818 3.16596 8.02818 4.32497C8.02818 5.22622 8.29302 6.08172 8.77916 6.80185H0V15.4558H2.98246V34H31.614V15.4558H34V6.80185ZM19.3693 2.13923C20.5324 0.934473 22.4245 0.934473 23.5871 2.13923C24.1472 2.72028 24.4561 3.49604 24.4561 4.32497C24.4561 5.15328 24.1472 5.92966 23.5871 6.51009L23.3055 6.80185H14.8699L17.6818 3.88794L19.3693 2.13923ZM10.0902 6.51009C9.53014 5.92966 9.22116 5.15328 9.22116 4.32497C9.22116 3.49604 9.53014 2.72028 10.0902 2.13923C11.2534 0.934473 13.1455 0.934473 14.308 2.13923L15.9949 3.88794L13.8863 6.07307C13.7628 6.20102 13.6495 6.34567 13.5398 6.49897C13.5075 6.54409 13.4759 6.59292 13.4449 6.64052C13.4091 6.69492 13.3715 6.74375 13.3375 6.80124H10.3718L10.0902 6.51009ZM1.19298 14.2195V8.03813H9.8773H12.7005H14.0456H16.7018V14.2195H2.98246H1.19298ZM16.7018 15.4558V22.8735H4.17544V15.4558H16.7018ZM4.17544 24.1098H16.7018V32.7637H4.17544V24.1098ZM17.8947 32.7637V24.1098H30.4211V32.7637H17.8947ZM30.4211 22.8735H17.8947V15.4558H30.4211V22.8735ZM32.807 14.2195H31.614H17.8947V8.03813H23.7994H32.807V14.2195Z" fill="#00356F"/>
</svg>
