<svg width="36" height="34" viewBox="0 0 36 34" fill="none" xmlns="http://www.w3.org/2000/svg">
<path d="M35.1176 10.5173C34.6164 4.9664 30.7115 0.939141 25.8245 0.939141C22.5688 0.939141 19.5877 2.70194 17.9103 5.5272C16.2481 2.6654 13.3893 0.938477 10.1857 0.938477C5.2994 0.938477 1.39382 4.96574 0.893236 10.5166C0.853612 10.7618 0.691154 12.0522 1.18513 14.1565C1.89704 17.1917 3.54143 19.9525 5.93933 22.1386L17.9024 33.0616L30.0709 22.1392C32.4688 19.9525 34.1132 17.1924 34.8251 14.1565C35.3191 12.0528 35.1566 10.7624 35.1176 10.5173ZM33.5393 13.8522C32.8895 16.6243 31.3831 19.1499 29.1873 21.1512L17.9103 31.2742L6.8269 21.1539C4.62712 19.1485 3.12141 16.6236 2.47092 13.8515C2.00336 11.8601 2.19554 10.7352 2.1962 10.7279L2.2061 10.6608C2.63536 5.79764 5.99084 2.26739 10.1857 2.26739C13.281 2.26739 16.0058 4.18102 17.2988 7.26077L17.907 8.71127L18.5153 7.26077C19.7878 4.22819 22.6566 2.26805 25.8252 2.26805C30.0194 2.26805 33.3755 5.7983 33.8134 10.7246C33.8147 10.7352 34.0069 11.8608 33.5393 13.8522Z" fill="#00356F"/>
</svg>
