<svg width="34" height="34" viewBox="0 0 34 34" fill="none" xmlns="http://www.w3.org/2000/svg">
<path d="M29.7137 28.2681C32.3774 25.2661 34 21.3198 34 17C34 12.5056 32.2437 8.41617 29.3854 5.37317V5.37259C29.383 5.36907 29.3795 5.3679 29.3778 5.36497C26.4004 2.20003 22.229 0.174103 17.5891 0.0152414L17.5886 0.0146552L17.2573 0.00586207C17.1718 0.00293103 17.0862 0 17 0C16.9138 0 16.8282 0.00293103 16.7427 0.00586207L16.4126 0.0146552L16.412 0.0152414C11.7722 0.174103 7.60076 2.20003 4.62341 5.36497C4.62107 5.3679 4.61755 5.36907 4.61579 5.37259C4.61579 5.37259 4.61579 5.37317 4.61521 5.37376C1.75628 8.41617 0 12.5056 0 17C0 21.3198 1.62262 25.2661 4.28635 28.2681C4.28986 28.2733 4.28986 28.2792 4.29397 28.2845C4.30452 28.2991 4.31976 28.3062 4.3309 28.3197C7.32407 31.6657 11.6186 33.8212 16.4114 33.9853L16.412 33.9859L16.7421 33.9947C16.8282 33.9971 16.9138 34 17 34C17.0862 34 17.1718 33.9971 17.2573 33.9941L17.5874 33.9853L17.588 33.9848C22.3861 33.82 26.6853 31.6604 29.6785 28.3073C29.6861 28.2974 29.6984 28.2944 29.7054 28.2839C29.7101 28.2792 29.7101 28.2733 29.7137 28.2681ZM1.18707 17.5862H8.22331C8.28955 20.0711 8.77493 22.4857 9.639 24.7479C7.97183 25.3511 6.37793 26.1601 4.88428 27.1695C2.68776 24.5568 1.32072 21.2266 1.18707 17.5862ZM5.20435 6.46176C6.66283 7.41024 8.21569 8.16997 9.83538 8.73741C8.84352 11.145 8.29483 13.7407 8.22331 16.4138H1.18707C1.32717 12.5993 2.82083 9.12607 5.20435 6.46176ZM32.8129 16.4138H25.7767C25.7052 13.7407 25.1565 11.145 24.1646 8.73741C25.7843 8.16997 27.3372 7.41024 28.7957 6.46176C31.1792 9.12607 32.6728 12.5993 32.8129 16.4138ZM16.4138 8.77141C14.7191 8.72334 13.0554 8.47069 11.448 8.01931C12.6363 5.58186 14.314 3.38183 16.4138 1.54993V8.77141ZM16.4138 9.94383V16.4138H9.39572C9.46783 13.865 10.0024 11.3929 10.9586 9.10086C12.7207 9.61145 14.5502 9.894 16.4138 9.94383ZM17.5862 9.94383C19.4498 9.894 21.2793 9.61203 23.042 9.10086C23.9981 11.3929 24.5328 13.865 24.6049 16.4138H17.5862V9.94383ZM17.5862 8.77141V1.54993C19.686 3.38183 21.3637 5.58186 22.552 8.01931C20.9446 8.47069 19.2809 8.72334 17.5862 8.77141ZM23.688 7.6629C22.5619 5.30341 20.9991 3.15379 19.064 1.31134C22.4969 1.76038 25.5856 3.31266 27.9644 5.60121C26.6138 6.45824 25.1811 7.14762 23.688 7.6629ZM10.312 7.6629C8.8189 7.14762 7.38621 6.45824 6.03617 5.60121C8.41441 3.31266 11.5037 1.76038 14.9366 1.31134C13.0009 3.15379 11.4381 5.30341 10.312 7.6629ZM9.39572 17.5862H16.4138V23.4706C14.4752 23.5221 12.5759 23.8246 10.7504 24.3739C9.92566 22.2313 9.46197 19.9422 9.39572 17.5862ZM16.4138 24.643V32.4501C14.1663 30.4892 12.4041 28.1069 11.2059 25.4642C12.8866 24.9689 14.6323 24.6934 16.4138 24.643ZM17.5862 32.4501V24.643C19.3677 24.6928 21.1134 24.9689 22.7941 25.4637C21.5959 28.1069 19.8337 30.4892 17.5862 32.4501ZM17.5862 23.4706V17.5862H24.6043C24.538 19.9422 24.0743 22.2313 23.249 24.3745C21.4241 23.8246 19.5248 23.5221 17.5862 23.4706ZM25.7767 17.5862H32.8129C32.6793 21.2266 31.3128 24.5568 29.1157 27.1695C27.6221 26.1601 26.0282 25.3511 24.361 24.7479C25.2257 22.4857 25.7104 20.0711 25.7767 17.5862ZM5.68093 28.0477C7.0679 27.1261 8.54455 26.3852 10.0874 25.8312C11.2276 28.3871 12.8643 30.7161 14.936 32.6887C11.3302 32.2168 8.10314 30.5285 5.68093 28.0477ZM19.064 32.6887C21.1357 30.7167 22.7724 28.3877 23.9126 25.8312C25.4554 26.3852 26.9315 27.1261 28.3191 28.0477C25.8969 30.5285 22.6698 32.2168 19.064 32.6887Z" fill="#00356F"/>
</svg>
