<svg width="34" height="34" viewBox="0 0 34 34" fill="none" xmlns="http://www.w3.org/2000/svg">
<path d="M25.1477 2.38596C24.8751 1.02656 23.6916 0 22.2759 0C21.9523 0 21.6897 0.266632 21.6897 0.596491C21.6897 0.926351 21.9523 1.19298 22.2759 1.19298C23.2454 1.19298 24.0345 1.99586 24.0345 2.98246C24.0345 3.96905 23.2454 4.77193 22.2759 4.77193C21.9523 4.77193 21.6897 5.03856 21.6897 5.36842C21.6897 5.69828 21.9523 5.96491 22.2759 5.96491C23.691 5.96491 24.8751 4.93835 25.1477 3.57895H32.8276V7.75439H25.7931H24.6207H17.5862H16.4138H9.37931H8.2069H1.17241V3.57895H9.37931H11.1379C11.4615 3.57895 11.7241 3.31232 11.7241 2.98246C11.7241 2.6526 11.4615 2.38596 11.1379 2.38596H10.0734C10.3161 1.69284 10.9609 1.19298 11.7241 1.19298C12.6937 1.19298 13.4828 1.99586 13.4828 2.98246C13.4828 3.96905 12.6937 4.77193 11.7241 4.77193C11.4006 4.77193 11.1379 5.03856 11.1379 5.36842C11.1379 5.69828 11.4006 5.96491 11.7241 5.96491C13.3403 5.96491 14.6552 4.62698 14.6552 2.98246C14.6552 1.33793 13.3403 0 11.7241 0C10.309 0 9.1249 1.02656 8.85231 2.38596H0V7.75439V9.54386V16.1053V17.2982V24.4561V25.6491V34H8.2069H9.37931H16.4138H17.5862H24.6207H25.7931H34V25.6491V24.4561V17.2982V16.1053V9.54386V7.75439V2.38596H25.1477ZM17.5862 8.94737H24.6207V16.1053H17.5862V8.94737ZM24.6207 24.4561H17.5862V17.2982H24.6207V24.4561ZM9.37931 17.2982H16.4138V24.4561H9.37931V17.2982ZM9.37931 8.94737H16.4138V16.1053H9.37931V8.94737ZM1.17241 9.54386V8.94737H8.2069V16.1053H1.17241V9.54386ZM1.17241 17.2982H8.2069V24.4561H1.17241V17.2982ZM1.17241 32.807V25.6491H8.2069V32.807H1.17241ZM9.37931 32.807V25.6491H16.4138V32.807H9.37931ZM17.5862 32.807V25.6491H24.6207V32.807H17.5862ZM32.8276 32.807H25.7931V25.6491H32.8276V32.807ZM32.8276 24.4561H25.7931V17.2982H32.8276V24.4561ZM25.7931 16.1053V8.94737H32.8276V9.54386V16.1053H25.7931Z" fill="#00356F"/>
<path d="M15.2425 1.19298C16.212 1.19298 17.0011 1.99586 17.0011 2.98246C17.0011 3.96905 16.212 4.77193 15.2425 4.77193C14.9189 4.77193 14.6562 5.03856 14.6562 5.36842C14.6562 5.69828 14.9189 5.96491 15.2425 5.96491C16.8586 5.96491 18.1735 4.62698 18.1735 2.98246C18.1735 1.33793 16.8586 0 15.2425 0C14.9189 0 14.6562 0.266632 14.6562 0.596491C14.6562 0.926351 14.9189 1.19298 15.2425 1.19298Z" fill="black"/>
<path d="M18.7581 1.19298C19.7277 1.19298 20.5167 1.99586 20.5167 2.98246C20.5167 3.96905 19.7277 4.77193 18.7581 4.77193C18.4345 4.77193 18.1719 5.03856 18.1719 5.36842C18.1719 5.69828 18.4345 5.96491 18.7581 5.96491C20.3743 5.96491 21.6891 4.62698 21.6891 2.98246C21.6891 1.33793 20.3743 0 18.7581 0C18.4345 0 18.1719 0.266632 18.1719 0.596491C18.1719 0.926351 18.4345 1.19298 18.7581 1.19298Z" fill="black"/>
</svg>
