<svg width="34" height="34" viewBox="0 0 34 34" fill="none" xmlns="http://www.w3.org/2000/svg">
<path d="M17 0C7.6262 0 0 7.6262 0 17C0 26.3738 7.6262 34 17 34C26.3738 34 34 26.3738 34 17C34 7.6262 26.3738 0 17 0ZM17 32.8667C8.25123 32.8667 1.13333 25.7488 1.13333 17C1.13333 8.25123 8.25123 1.13333 17 1.13333C25.7488 1.13333 32.8667 8.25123 32.8667 17C32.8667 25.7488 25.7488 32.8667 17 32.8667Z" fill="#00356F"/>
<path d="M16.9966 3.40002C16.6838 3.40002 16.4299 3.65332 16.4299 3.96669V17H7.92995C7.61715 17 7.36328 17.2533 7.36328 17.5667C7.36328 17.8801 7.61715 18.1334 7.92995 18.1334H16.9966C17.3094 18.1334 17.5633 17.8801 17.5633 17.5667V3.96669C17.5633 3.65332 17.3094 3.40002 16.9966 3.40002Z" fill="#00356F"/>
</svg>
