<svg width="229" height="32" viewBox="0 0 229 32" fill="none" xmlns="http://www.w3.org/2000/svg">
<path d="M23.9931 11.0249H29.0288L32.7329 7.40358L25.1598 -2.68087e-05L21.4102 3.66538V8.50902L23.9909 8.49741L23.9931 11.0249Z" fill="#00356F"/>
<path d="M8.80263 20.8767H3.80525L0 24.5962L7.5738 32L11.3333 28.3247V23.3526L8.81186 23.3412L8.80263 20.8767Z" fill="#00356F"/>
<path d="M8.76481 11.0249L8.75558 8.56492L11.3333 8.55353V3.675L7.5738 -2.68087e-05L0 7.40358L3.70455 11.0249H8.76481Z" fill="#00356F"/>
<path d="M28.9283 20.8767H24.0006L24.0028 23.4089L21.4102 23.3972V28.3344L25.1598 32L32.7329 24.5962L28.9283 20.8767Z" fill="#00356F"/>
<path d="M24.0013 19.4204H28.6753V12.4815H23.9961L24.0013 19.4204Z" fill="#00356F"/>
<path d="M12.8203 8.54688L19.9186 8.51546V3.92394H12.8203V8.54688Z" fill="#00356F"/>
<path d="M8.76671 12.4815H4.06641V19.4204H8.79289L8.76671 12.4815Z" fill="#00356F"/>
<path d="M19.9186 23.3907L12.8203 23.3589V27.9771H19.9186V23.3907Z" fill="#00356F"/>
<path d="M16.4451 21.1909L11.0929 15.9593L16.4451 10.7275L21.7967 15.9593L16.4451 21.1909ZM10.2578 10.0147L10.3024 21.891L22.519 21.9458L22.5102 9.96058L10.2578 10.0147Z" fill="#00356F"/>
<path d="M13.1953 15.9595L16.4404 19.1318L19.6852 15.9595L16.4404 12.7875L13.1953 15.9595Z" fill="#00356F"/>
<path d="M75.7657 4.28606V27.8374H70.7394V13.1446L62.7034 22.1017L54.6675 13.1446V27.8374H49.6406V4.28606H52.1623L62.7034 16.0699L73.2441 4.28606H75.7657Z" fill="#00356F"/>
<path d="M108.68 23.3834C113.169 23.3834 115.724 20.0145 115.724 16.0535C115.724 11.6987 112.682 8.72345 108.68 8.72345C104.225 8.72345 101.619 12.0929 101.619 16.0535C101.619 20.0473 104.393 23.3834 108.68 23.3834ZM108.68 4.26972C116.01 4.26972 120.969 9.66041 120.969 16.0535C120.969 23.0221 115.422 27.8374 108.68 27.8374C101.384 27.8374 96.3906 22.4961 96.3906 16.0535C96.3906 9.36466 101.804 4.26972 108.68 4.26972Z" fill="#00356F"/>
<path d="M146.636 13.8515H153.243C154.688 13.8515 156.252 12.9806 156.252 11.337C156.252 9.75907 154.773 8.82233 153.226 8.82233H146.636V13.8515ZM156.824 27.8374L151.108 18.2889H146.636V27.8374H141.609V4.28606H153.865C157.933 4.28606 161.178 7.03107 161.178 11.337C161.178 14.4103 159.648 16.6947 156.487 17.8287L162.472 27.8374H156.824Z" fill="#00356F"/>
<path d="M182.785 27.8374H187.829V4.26969H182.785V27.8374Z" fill="#00356F"/>
<path d="M211.593 20.3764C213.812 22.4798 216.468 23.3347 218.67 23.3347C221.142 23.351 223.025 22.2664 223.025 20.672C223.025 16.4647 208.768 19.7845 208.768 11.2877C208.768 6.60397 212.702 4.28628 217.342 4.28628C220.301 4.28628 223.546 5.22318 226.219 7.08048L223.361 10.4989C221.831 9.39795 219.393 8.72368 217.359 8.72368C215.359 8.72368 213.745 9.36488 213.745 10.9264C213.745 15.3638 228.001 11.5014 228.001 20.6556C228.001 24.781 223.966 27.8213 218.822 27.8213C215.594 27.8213 211.912 26.6215 208.516 23.7291L211.593 20.3764Z" fill="#00356F"/>
</svg>
